<svg fill="currentColor" height="1em" style="flex:none;line-height:1" viewBox="0 0 24 24" width="1em" xmlns="http://www.w3.org/2000/svg"><title>WeCode</title><path fill-rule="evenodd" d="M8.55 20.81C4.17 20.22 1.19 17.87 1.20 15.03C1.21 12.93 2.82 10.17 5.25 8.10C9.20 4.72 12.59 4.80 11.88 8.25C11.73 9.01 11.75 9.02 12.85 8.64C16.10 7.54 17.90 8.44 17.20 10.80C17.03 11.35 17.06 11.60 17.28 11.60C17.56 11.60 18.81 12.30 19.17 12.66C21.38 14.86 19.10 18.65 14.63 20.19C12.93 20.78 10.30 21.04 8.55 20.81ZM10.71 19.48C16.28 18.63 18.28 13.81 13.93 11.70C9.70 9.64 3.43 11.98 3.43 15.62C3.43 18.27 6.83 20.08 10.71 19.48ZM8.19 18.64C7.06 18.37 6.12 17.35 5.99 16.26C5.65 13.45 9.72 11.50 11.89 13.44C14.31 15.62 11.57 19.47 8.19 18.64ZM8.83 17.20C9.46 16.88 9.64 15.97 9.18 15.51C8.68 15.01 7.58 15.30 7.28 16.02C6.90 16.94 7.89 17.69 8.83 17.20ZM10.44 15.21C10.54 14.99 10.53 14.93 10.38 14.82C10.03 14.57 9.60 14.92 9.76 15.33C9.85 15.57 10.31 15.50 10.44 15.21ZM21.17 11.08C20.86 10.81 20.84 10.56 21.01 9.62C21.34 7.81 20.42 6.02 18.76 5.23C18.14 4.94 18.02 4.92 16.95 4.91C15.69 4.90 15.46 4.82 15.27 4.37C14.72 3.04 17.39 2.62 19.56 3.70C21.53 4.68 22.80 6.74 22.80 8.94C22.80 10.40 22.38 11.31 21.71 11.31C21.55 11.31 21.31 11.21 21.17 11.08ZM18.56 10.11C18.37 9.94 18.34 9.81 18.36 9.25C18.39 8.12 18.00 7.65 16.99 7.60C16.26 7.56 16.11 7.50 15.97 7.16C15.45 5.90 17.64 5.68 18.98 6.85C19.74 7.52 20.10 9.10 19.68 9.91C19.45 10.37 18.93 10.46 18.56 10.11Z"></path></svg>
